<?xml version="1.0" encoding="utf-8"?>
<!-- Generator: Adobe Illustrator 19.2.1, SVG Export Plug-In . SVG Version: 6.00 Build 0)  -->
<svg version="1.1" id="layer" xmlns="http://www.w3.org/2000/svg" xmlns:xlink="http://www.w3.org/1999/xlink" x="0px" y="0px"
	 viewBox="0 0 652 652" style="enable-background:new 0 0 652 652;" xml:space="preserve">
<style type="text/css">
	.st0{fill:#002855;}
	.st1{fill:#EEB111;}
</style>
<path class="st0" d="M140.6,331.8c1.7,4.3,2.2,6.1,3.1,6.1c0.7,0,1.1-0.3,1.6-1.6l7-17.4c0.2-0.4,0.4-0.4,0.6-0.4
	c0.2,0,0.3,0.2,0.4,0.6l6.9,16.4c0.9,2,1.1,2.4,1.7,2.4c0.9,0,1.4-1.2,1.8-2.1l16.1-37.9c2.1-4.9,3.6-3.2,3.6-4.6
	c0-0.7-0.3-0.7-0.8-0.7c-1.5,0-3.3,0.2-5.2,0.2c-1.5,0-3-0.2-4.4-0.2c-0.4,0-0.7,0.4-0.7,0.9c0,1.3,4,0.8,4,3.5
	c0,0.7-0.1,1.4-0.4,2.1l-11.4,28c-0.6,1.4-0.9,2.3-1.4,2.3c-0.4,0-0.8-0.5-1.4-1.9l-5.3-12.9c-0.4-0.9-0.8-2.4-0.8-3
	c0-0.8,0.2-1.6,0.6-2.4l4.4-10.2c2.8-6.6,4.3-4.2,4.3-5.9c0-0.2-0.2-0.4-0.4-0.4c-1.1,0-1.8,0.2-4.6,0.2c-1.4,0-2.7-0.2-4.1-0.2
	c-0.4,0-1.3,0-1.3,0.6c0,1.4,3.7,1,3.6,3.7c-0.1,0.8-0.2,1.5-0.6,2.3l-3.1,7.3c-0.4,0.9-0.7,1.6-0.9,1.6c-0.1,0-0.3-0.4-0.8-1.6
	l-3.2-8.3c-0.3-0.6-0.4-1.2-0.4-1.9c0-2.1,2.5-1.9,2.5-2.9c0-0.4-0.1-0.7-0.4-0.7c-1.4,0-3.1,0.2-6.1,0.2c-0.9,0-4.2-0.2-6.3-0.2
	c-0.6,0-0.9,0-0.9,0.7c0,2.1,4.4-0.1,6.1,4l6.3,15c0.3,0.6,0.5,1.3,0.6,1.9c-0.1,0.9-0.4,1.7-0.7,2.5l-4.6,11
	c-0.2,0.7-0.6,1.1-0.9,1.1c-0.4,0-0.8-0.9-1.1-1.6L132,298c-0.2-0.5-0.4-1-0.4-1.6c0-2.1,2.7-2.1,2.7-3.1c0-0.4-0.1-0.7-0.5-0.7
	c-1.5,0-3,0.2-4.5,0.2c-1.8,0-3.7-0.2-5.5-0.2c-0.6,0-1.5,0.2-1.5,1c0,1.3,3,0.4,4.5,4.1L140.6,331.8L140.6,331.8z M177.5,319.1
	c0-3.4,2.8-7.9,6.6-7.9c3.4,0,6.9,3.1,6.9,6.6c0,0.9-0.4,1.3-1.3,1.3H177.5z M194.1,320.8c1.4,0,2.1,0,2.1-1.1c0-2.5-3.4-10-11.1-10
	c-7.8,0-12.3,6.7-12.3,14.7c0,4.1,3.2,12.8,12.6,12.8c5.6,0,11.1-4.5,11.1-5.9c0-0.2,0-0.4-0.2-0.4c-1.4,0-3.4,3.2-8.8,3.2
	c-3.8,0-10.1-3.1-10.1-13.4L194.1,320.8L194.1,320.8z M206.8,325.1c2.5,1.2,5.7,2.2,5.7,5.5c0,3.2-2.5,5.1-5.6,5.1
	c-6.8,0-6.1-8.3-7.4-8.3c-0.9,0-0.8,2-0.8,3.1c0,4.9,0,5,1.4,5c1.5,0,2.6,1.8,7,1.8c4.7-0.1,8.5-3.9,8.5-8.6c0-4-1.6-5.9-5.2-7.4
	c-6.6-2.6-8.2-3.9-8.2-6c0-2.5,1.9-4,4.4-4c5.7,0,6.3,5.4,6.9,5.4c0.9,0,0.7-0.8,0.7-2.4c0-0.4,0.1-2.5-0.3-3.1
	c-0.8-0.9-5.1-1.4-6.1-1.4c-4.6,0-8.5,2.5-8.5,7.5C199.2,321.8,203.4,323.4,206.8,325.1L206.8,325.1z M219.8,330.1
	c0,6.4,4.1,7.2,7,7.2c4.4,0,7.8-2.1,7.8-3.1c0-0.5-0.2-0.6-0.5-0.6c-1.1,0-2,1.4-5.3,1.4c-2.5,0-4.2-1.2-4.4-3.8v-18.2h8.1l0.8-2.3
	c0.2-0.3-0.5-0.3-2.1-0.3h-6.9c0-4.5,0-5.8-0.8-5.8c-0.5,0-1-0.4-1.3,1.6c-0.5,4.2-3.9,5.8-3.9,6.3c0.3-0.3-1.2,0.6,1.5,0.5
	L219.8,330.1L219.8,330.1z M251,334c0.6,1.3,1.3,3.9,2.3,3.9c0.9,0,1.4-2.1,2.1-3.6l15.6-36.8c1.7-4.2,3.5-2.6,3.5-4
	c0-0.6-0.4-0.8-1.1-0.8c-0.9,0-1.8,0.2-4.8,0.2c-1.4,0-2.8-0.2-4.1-0.2c-0.6,0-0.9,0.2-0.9,0.8c0,1.5,4,0.2,4,3.1
	c0.2,1.3-0.5,3.3-0.9,4.2l-10.9,26.8c-0.3,0.8-0.5,1.7-1.1,1.7c-0.7,0-1.1-1.4-2.5-4.7l-11-25.8c-0.3-0.8-0.5-1.6-0.6-2.4
	c0-2.3,2.6-2.3,2.5-3.2c0-0.4-0.5-0.6-0.9-0.6c-0.9,0-3.2,0.2-4.9,0.2c-1.9,0-3.8-0.2-5.7-0.2c-0.4,0-0.8,0.3-0.9,0.7v0.1
	c0,1.4,3.2,0.2,4.8,3.9L251,334L251,334z M322.8,300.7c-0.8,0-2.6,2.6-2.6,3.3c0,0.7,1.9,3.2,2.6,3.2c0.8,0,2.6-2.5,2.6-3.2
	S323.6,300.7,322.8,300.7z M365.6,300.4c-0.7,0-2.6,2.6-2.6,3.3c0,0.7,1.9,3.2,2.6,3.2c0.8,0,2.6-2.5,2.6-3.2
	C368.3,303,366.5,300.4,365.6,300.4z M388.7,321.7c-14.6,2.4-15.7,6.4-15.7,9.7c0,4.4,2.7,5.9,6.8,5.9c3.5,0,6.9-1.3,9.5-3.6
	c0.8,2.1,2.4,3.2,4.9,3.2c0.9,0,3.6-0.2,3.6-1.6c0-0.4-0.5-0.4-0.8-0.4s-0.8,0.1-1.1,0.1c-3.2,0-2.7-3.7-2.7-5.8v-12.9
	c0-5.3-6-6.4-9.9-6.4c-7-0.2-10.4,4.2-10.5,7.1c0,1.1,1.9,2.1,3,2.1c1.2,0,1.4-0.5,1.4-1.2c0-0.7-0.4-1.6-0.4-2.5
	c0-3.4,2.4-3.8,5.4-3.8c3.9,0,6.4,2.2,6.4,5.4L388.7,321.7L388.7,321.7z M388.7,330.5c0,3.3-4.2,5.1-6.5,5.1c-3.3,0-5.1-1.4-5.1-4.9
	c0-5.5,7.6-6.5,11.7-7.4V330.5z M278.8,335.4c-0.5,0-4.6,0-4.6-2.7v-22.5c0-0.6-0.4-1-0.7-1c-1.5,0-2.7,2-6.7,3.1
	c-0.3,0-0.6,0.4-0.6,0.7c0,1.3,3.4-0.3,3.4,3.4v14.8c0,5.7-2.8,3.3-2.8,4.9c0.1,0.6,0.4,0.7,0.9,0.7c0.7,0,2.3-0.2,4.3-0.2
	c2.5,0,4.5,0.2,5.8,0.2h1.1c1.9-0.2,3.8-0.3,5.7-0.2c3.5,0,5,0.2,5.9,0.2c0.7,0,1-0.1,1-0.7c0-2-5.6,1-5.6-4.8v-13.9
	c0-0.8,5-9.6,12.6-9.2c2.3,0.1,1.9,0.2,3.4-2.1c0.6-1-2.3-1-3.6-0.9c-8.4,0.6-10.3,6.4-12.3,9.3v-4.3c0-0.6-0.4-1-0.7-1
	c-1.5,0-2.7,2-7.5,3.1c-0.3,0-0.8,0.3-0.8,0.7c0,1.3,4.5-0.3,4.5,3.4v16.1C281.5,334.7,279.5,335.6,278.8,335.4z M360.6,335.4
	c-0.6,0-4.7,0.2-4.7-3.6v-10.3c0-4.8-1.8-11.7-10.2-11.7c-6.1,0-9.2,5.4-9.1,4.6v-4.1c0-0.6-0.4-1-0.7-1c-1.5,0-2.7,2-7.9,3.1
	c-0.3,0-0.6,0.4-0.6,0.7c0,1.3,4.6-0.3,4.6,3.4V332c0,2.9-2.1,3.3-3.1,3.2c-0.4-0.1-4.2-0.1-4.2-2.5v-22.4c0-0.6-0.4-1-0.7-1
	c-1.5,0-2.7,2-6.7,3.1c-0.3,0-1.1,2.2-0.7,2.1c2.1-0.2,3.6-1.7,3.6,2v14.8c0,5.7-2.8,3.3-2.8,4.9c0.1,0.6,0.4,0.7,0.9,0.7
	c0.7,0,2.3-0.2,4.3-0.2c2.5,0,4.5,0.2,5.8,0.2h1c0.7,0,2-0.2,5.3-0.2c3.6,0,4.9,0.2,5.9,0.2c0.9,0,1.4-0.1,1.4-0.9
	c0-1.7-5.5,0.1-5.5-4.2v-14.3c-0.1-1,2.1-4.9,7.4-4.9c5.1,0,7.3,4.7,7.3,7.8V332c0,4-2.7,2.8-2.7,4c0,0.6,0.3,0.8,1.1,0.8
	s2.1-0.2,4.5-0.2c3.1,0,4.6,0.2,5.4,0.2h1.5c0.7,0,2.3-0.2,4.3-0.2c2.5,0,4.5,0.2,5.8,0.2c0.8,0,1.2-0.2,1.2-0.7
	c0-1.6-4.9-0.2-4.9-3.4v-22.4c0-0.6-0.4-1-0.7-1c-1.5,0-2.7,2-6.7,3.1c-0.3,0-0.6,0.4-0.6,0.7c0,1.3,3.4-0.3,3.4,3.4v14.8
	C363,335.6,361.4,335.3,360.6,335.4L360.6,335.4z"/>
<path class="st0" d="M304.4,327.6c-4.4,0-5.9-4.3-5.9-8c0-3.3,1-7.3,5.7-7.3c4.4,0,5.9,4.4,5.9,8.3
	C310.1,322.7,309.5,327.6,304.4,327.6z M320.1,312.5c-0.3-0.4-0.9-0.4-1.1-0.4l-0.2,0c-1.6,0.6-3.3,1-5,1.1c-0.6,0-1.3-0.1-1.9-0.3
	c-0.5-0.2-0.9-0.5-1.4-0.8c-1.4-0.9-2.7-1.7-6.8-1.7c-6,0-10.5,4.4-10.5,10.2c0,3.2,1.4,6.1,3.8,7.8c-0.9,0.9-3,3-3,5.1
	c0,2.7,1,4.7,2.6,5.3c1.4,0.8,4.1,1.2,8.3,1.4c6.8,0.2,8.2,0.4,8.2,2.5c0,1-0.5,5.8-10,5.8c-2.4,0-8-0.4-8-4.7
	c0-1.5,0.1-1.6,0.8-2.5c0.2-0.3,0.3-0.7,0.1-1c-0.2-0.4-0.6-0.6-1.1-0.6c-0.1,0-0.2,0-0.3,0c-1.2,0.4-3,1-3,4c0,5.6,7.2,7,11,7
	c10.5,0,14.2-5.1,14.2-9.5c0-6-6.5-6-10-6h-2.8c-4.3,0-5.9-0.8-6.6-1.4c-0.3-0.3-0.4-0.8-0.4-1.2c0-1.3,1.3-3,2.6-3
	c0.2,0,0.4,0,0.7,0.1c1.2,0.3,2.4,0.4,3.6,0.4c6.3,0,10.8-4.2,10.8-10c0-1.2-0.2-2.3-0.5-3.5c-0.1-0.2-0.2-0.5-0.3-0.7
	s-0.2-0.3-0.2-0.5c2.1-0.2,5.8-1.1,5.9-1.8C320.2,313.2,320.2,312.8,320.1,312.5L320.1,312.5z M534,335.4c-0.4,0.2-0.5,0.6-0.4,1
	c0.1,0.2,0.2,0.3,0.4,0.4c0.2,0.1-0.1,0,0.1,0h0.4c1.9-0.2,3.8-0.3,5.7-0.2c3.5,0,5,0.2,5.9,0.2c0.7,0,1-0.1,1-0.7
	c0-2-5.6,1-5.6-4.8l0-13.9c0-0.8,5-9.6,12.6-9.2c2.3,0.1,1.9,0.2,3.4-2.1c0.6-1-2.3-1-3.6-0.9c-8.4,0.7-10.2,6.4-12.3,9.4v-0.1
	l0-4.2c0-0.6-0.4-1-0.7-1c-1.4,0-2.7,2-7.5,3.1c-0.3,0.1-0.8,0.3-0.8,0.7c0,1.3,4.5-0.3,4.5,3.4v16.1
	C537.1,334.6,534.7,335.2,534,335.4L534,335.4z M615.7,314.7c1.3-3.8,3.4-2.2,3.4-3.6c0-0.5-0.4-0.7-1.2-0.7c-0.6,0-1.7,0.2-3.2,0.2
	c-1.7,0-2.8-0.2-3.5-0.2c-1.1,0-1.9,0.1-1.9,0.7c0,1.4,4,0.4,4,3.8c0,0.4,0,1-0.8,3.2c-4.2,13.5-4.8,14.1-4.8,14.1l-6.7-17l0.1-0.1
	c0.1,0.6-0.4-0.4-0.4-1.4c0-2.5,3.6-1.3,3.6-2.5c0-0.7-0.4-0.8-1.3-0.8c-0.9,0-2.4,0.2-4.6,0.2c-1.7,0-3.1-0.1-4.4-0.1
	c-0.9,0-1,0.1-1.3,0.6c-1.7,3.2,2.3,1,2.9,2.3l8.2,20.2c0.6,1.3,1.3,2.7,1.3,4.2c0,4.9-5.9,15.7-15.4,14.4c-0.3,0-1.1-0.2-1.4,0.1
	c0.3,0.1-0.8-0.3,1.1,2.6c0.7,0.6,2,0.8,4.2,0.4c6.4-1.4,10.8-7.9,10.8-8.1C607.9,342.2,615.7,314.7,615.7,314.7L615.7,314.7z
	 M406.9,297.7c0-4.5,4.2-2.8,4.2-4.5c0-0.8-1.7-0.6-2-0.6c-1.9,0-3.9,0.2-5.9,0.2c-1.7,0-3.2-0.2-4.9-0.2c-0.3,0-1.4,0.2-1.4,0.6
	c0,2,5.1,0.5,5.1,4.2v21.1c0,9.6,3.1,18.8,19.6,18.8c18.2,0,17.4-15.5,17.4-18.5v-19.4c0-5.7,3.7-4.4,3.7-6.1c0-0.4-0.5-0.7-0.8-0.7
	c-1.1,0-2.3,0.2-3.4,0.2c-2.4,0-4.9-0.2-7.3-0.2c-0.2,0-0.6,0.3-0.6,0.6c0,2.4,5.8-0.2,5.8,6.1v20.3c0,7.4-2.7,15.1-14.4,15.1
	c-8.5,0-14.9-4.6-14.9-14.6C407,320.1,406.9,297.7,406.9,297.7z M513.8,319.1c0-3.4,2.8-7.9,6.6-7.9c3.4,0,6.9,3.1,6.9,6.6
	c0,0.9-0.4,1.3-1.3,1.3H513.8z M530.4,320.7c1.5,0,2.1,0.1,2.1-1.1c0-2.5-3.4-10-11.1-10c-7.8,0-12.3,6.7-12.3,14.7
	c0,4.1,3.2,12.8,12.6,12.8c5.6,0,11-4.5,11-5.9c0-0.2,0-0.4-0.2-0.4c-1.4,0-3.4,3.2-8.8,3.2c-3.8,0-10.1-3.1-10.1-13.4L530.4,320.7
	L530.4,320.7z"/>
<path class="st0" d="M558.1,325c2.5,1.2,5.7,2.2,5.7,5.5c0,3.2-2.5,5.1-5.6,5.1c-6.8,0-6.1-8.3-7.4-8.3c-0.9,0-0.7,2-0.7,3.1
	c0,4.9,0,5,1.4,5c1.5,0,2.6,1.8,7,1.8c4.7-0.1,8.5-3.9,8.5-8.6c0-4-1.6-5.9-5.2-7.4c-6.6-2.6-8.2-3.9-8.2-6c0-2.5,1.9-4,4.4-4
	c5.7,0,6.2,5.5,6.9,5.5c0.9,0,0.7-0.8,0.7-2.4c0-0.4,0.1-2.5-0.3-3.1c-0.8-0.9-5.1-1.4-6.1-1.4c-4.6,0-8.5,2.5-8.5,7.5
	C550.5,321.7,554.7,323.3,558.1,325L558.1,325z M582.9,330c0,6.4,4.1,7.2,7,7.2c4.4,0,7.8-2.1,7.8-3.1c0-0.5-0.2-0.6-0.5-0.6
	c-1.1,0-2,1.5-5.3,1.5c-2.5,0-4.2-1.2-4.4-3.8v-18.2h8.1l0.8-2.3c0.2-0.3-0.5-0.3-2.1-0.3h-6.9c0-4.5,0-5.8-0.8-5.8
	c-0.5,0-1-0.4-1.3,1.6c-0.5,4.2-3.9,5.8-3.9,6.3c0.3-0.3-1.1,0.6,1.5,0.5L582.9,330L582.9,330z M493.3,316.2c-0.7-1.9-1.1-2.8-1.1-3
	c0-1.9,3.5-1.1,3.5-2.3c0-0.7-0.6-0.7-1.4-0.7c-0.7,0-1.5,0.2-3.8,0.2c-4.1,0-4.1-0.2-5.3-0.2c-1.2,0-1.3,0.3-1.3,0.7
	c0,1.1,2.2,0.2,3.4,3l9.3,21.3c0.2,0.4,0.4,1.5,1.2,1.5c0.9,0,0.9-0.7,2.1-3.3l9.4-20c0.8-1.9,3.1-1.5,3.1-2.3
	c0-0.8-1.1-0.9-1.7-0.9c-1.1,0-2.1,0.2-3.2,0.2c-1.3,0-2.5-0.2-3.8-0.2c-0.8,0-1.5,0-1.5,0.8c0,1.5,3.8-0.2,3.8,3.3
	c0,2.8-1.5,5.4-2.7,7.8l-4.1,8.9L493.3,316.2L493.3,316.2z M474.6,336.8h0.6c0.7,0,2.3-0.2,4.3-0.2c2.5,0,4.5,0.2,5.8,0.2
	c0.8,0,1.2-0.2,1.2-0.7c0-1.6-4.9-0.2-4.9-3.4v-22.5c0-0.6-0.4-1-0.7-1c-1.5,0-2.7,2-6.7,3.1c-0.3,0-0.6,0.4-0.6,0.7
	c0,1.3,3.4-0.3,3.4,3.4v14.8c0,4.2-1.6,4-2.3,4c-0.2,0-4.7,0.3-4.7-3.6v-10.3c0-4.7-1.8-11.7-10.2-11.7c-6.1,0-9.2,5.4-9.1,4.6v-4.1
	c0-0.6-0.4-1-0.8-1c-1.5,0-2.7,2-7.9,3.1c-0.3,0-0.6,0.4-0.6,0.7c0,1.3,4.6-0.3,4.6,3.4V332c0,4-3.7,2.8-3.7,4
	c0,0.6,0.3,0.8,1.1,0.8c0.8,0,2-0.2,5.3-0.2c3.6,0,4.9,0.2,5.9,0.2c0.9,0,1.4-0.1,1.4-0.9c0-1.7-5.5,0.1-5.5-4.2v-14.3
	c-0.1-1,2.1-4.9,7.4-4.9c5.1,0,7.3,4.7,7.3,7.8V332c0,4-2.7,2.8-2.7,4c0,0.6,0.3,0.8,1.1,0.8c0.8,0,2.1-0.2,4.5-0.2
	c3.1,0,4.6,0.2,5.4,0.2L474.6,336.8L474.6,336.8z M479.7,300.9c-0.7,0-2.6,2.6-2.6,3.3c0,0.7,1.9,3.2,2.6,3.2c0.8,0,2.6-2.5,2.6-3.2
	C482.3,303.4,480.5,300.9,479.7,300.9z M571.6,331c0,5.7-2.8,3.3-2.8,4.9c0.1,0.6,0.4,0.7,0.9,0.7c0.7,0,2.3-0.2,4.3-0.2
	c2.5,0,4.5,0.2,5.8,0.2c0.8,0,1.2-0.2,1.2-0.7c0-1.6-4.9-0.2-4.9-3.4V310c0-0.6-0.4-1-0.8-1c-1.5,0-2.7,2-6.7,3.1
	c-0.3,0-0.6,0.4-0.6,0.7c0,1.3,3.4-0.3,3.4,3.4V331z M574.1,300.9c-0.7,0-2.6,2.6-2.6,3.3c0,0.7,1.9,3.2,2.6,3.2
	c0.8,0,2.6-2.5,2.6-3.2C576.7,303.4,574.9,300.9,574.1,300.9z M615.8,334v-1.5h1c0.5,0,1.1,0.1,1.1,0.7c0,0.8-0.6,0.8-1.2,0.8H615.8
	z M615.8,334.6h0.8l1.3,2.1h0.8l-1.4-2.2c0.7-0.1,1.3-0.5,1.3-1.4c0-1-0.6-1.4-1.7-1.4H615v4.9h0.7L615.8,334.6L615.8,334.6z
	 M613.2,334.3c0-1.9,1.7-3.4,3.6-3.4c1.9,0,3.4,1.7,3.4,3.6c0,1.9-1.6,3.4-3.4,3.4c-1.9,0-3.5-1.5-3.5-3.4L613.2,334.3L613.2,334.3z
	 M616.7,338.6c2.3,0,4.2-2,4.2-4.3c0-2.3-2-4.2-4.3-4.2c-2.3,0-4.2,1.9-4.2,4.2C612.4,336.6,614.3,338.6,616.7,338.6L616.7,338.6
	L616.7,338.6z"/>
<path class="st1" d="M115.2,277.2H98.5c-2.9,0-4,1.1-4.9,2.4L81.2,298l-11.9-18l-0.4-0.6c-0.2-0.3-0.5-0.5-0.9-0.5
	c-0.4,0-0.7,0.2-0.9,0.5l-0.4,0.6l-11.5,18l-12.8-18.4c-0.9-1.3-1.9-2.4-4.9-2.4H20.9v15h9.3c1.9,0,2.9,0.1,4.2,1.7l0.6,0.8
	l18.7,29.4c0.4,0.6,1,0.9,1.6,1c0.7,0,1.3-0.4,1.7-1l11-16.4l11.4,16.4c0,0,0.6,1,1.6,1c0.7,0,1.3-0.4,1.6-1l18.5-29.4l0.6-0.8
	c1-1.5,2.2-1.7,4.1-1.6h9.3C115.1,292.3,115.2,277.2,115.2,277.2z"/>
<path class="st1" d="M91.4,319.3l-10.1,16.1l-13-18.9l-10,14.8l21.2,33.2c0.7,1.3,1.3,1.4,1.6,1.5c0.6,0,1-0.3,1.7-1.5l16.6-30.3
	c0.8-1.5,2.3-2.5,4-2.6h11.9v-15H96.5C93.1,316.5,91.4,319.3,91.4,319.3L91.4,319.3z"/>
</svg>
